<mxfile host="Electron" modified="2024-04-06T08:19:52.299Z" agent="Mozilla/5.0 (Windows NT 10.0; Win64; x64) AppleWebKit/537.36 (KHTML, like Gecko) draw.io/23.0.2 Chrome/120.0.6099.109 Electron/28.1.0 Safari/537.36" etag="xV-GKEn4IVNOdAF4uWTY" version="23.0.2" type="device" pages="3">
  <diagram name="Datapath" id="F2XSYjMOO-Lknq1UwVOz">
    <mxGraphModel dx="1863" dy="1775" grid="1" gridSize="10" guides="1" tooltips="1" connect="1" arrows="1" fold="1" page="1" pageScale="1" pageWidth="827" pageHeight="1169" math="0" shadow="0">
      <root>
        <mxCell id="0" />
        <mxCell id="1" parent="0" />
        <mxCell id="yJI003IEUT3BsTEjJ197-28" value="" style="endArrow=classic;html=1;rounded=0;exitX=0;exitY=0.5;exitDx=0;exitDy=0;strokeWidth=4;fillColor=#e3c800;strokeColor=#B09500;" parent="1" source="_lhoNvbre-MPtyhj8p-p-33" edge="1">
          <mxGeometry width="50" height="50" relative="1" as="geometry">
            <mxPoint x="220" y="931" as="sourcePoint" />
            <mxPoint x="-250" y="1219" as="targetPoint" />
          </mxGeometry>
        </mxCell>
        <mxCell id="yJI003IEUT3BsTEjJ197-34" value="CONTROLLO&amp;nbsp;&lt;br&gt;MANCHE MAX" style="edgeLabel;html=1;align=center;verticalAlign=middle;resizable=0;points=[];" parent="yJI003IEUT3BsTEjJ197-28" vertex="1" connectable="0">
          <mxGeometry x="0.8188" relative="1" as="geometry">
            <mxPoint as="offset" />
          </mxGeometry>
        </mxCell>
        <mxCell id="yJI003IEUT3BsTEjJ197-8" value="" style="endArrow=none;html=1;rounded=0;entryX=0.33;entryY=1.029;entryDx=0;entryDy=0;entryPerimeter=0;exitX=1;exitY=0.5;exitDx=0;exitDy=0;" parent="1" source="_lhoNvbre-MPtyhj8p-p-33" target="_lhoNvbre-MPtyhj8p-p-36" edge="1">
          <mxGeometry width="50" height="50" relative="1" as="geometry">
            <mxPoint x="760" y="1030" as="sourcePoint" />
            <mxPoint x="600" y="750" as="targetPoint" />
            <Array as="points">
              <mxPoint x="760" y="1219" />
            </Array>
          </mxGeometry>
        </mxCell>
        <mxCell id="yJI003IEUT3BsTEjJ197-1" value="" style="endArrow=none;html=1;rounded=0;entryX=0.25;entryY=1;entryDx=0;entryDy=0;" parent="1" edge="1">
          <mxGeometry width="50" height="50" relative="1" as="geometry">
            <mxPoint x="777" y="470" as="sourcePoint" />
            <mxPoint x="776.5" y="220" as="targetPoint" />
          </mxGeometry>
        </mxCell>
        <mxCell id="InJ1SGGTuU8PRHhpm9jM-1" value="" style="swimlane;startSize=0;" parent="1" vertex="1">
          <mxGeometry x="293" y="400" width="240" height="200" as="geometry" />
        </mxCell>
        <mxCell id="InJ1SGGTuU8PRHhpm9jM-2" value="VS" style="text;html=1;strokeColor=none;fillColor=none;align=center;verticalAlign=middle;whiteSpace=wrap;rounded=0;" parent="InJ1SGGTuU8PRHhpm9jM-1" vertex="1">
          <mxGeometry x="90" y="85" width="60" height="30" as="geometry" />
        </mxCell>
        <mxCell id="Bt-MRxAjFV4AakwYzhv4-8" value="VS" style="rounded=0;whiteSpace=wrap;html=1;" parent="InJ1SGGTuU8PRHhpm9jM-1" vertex="1">
          <mxGeometry width="240" height="200" as="geometry" />
        </mxCell>
        <mxCell id="InJ1SGGTuU8PRHhpm9jM-4" value="" style="endArrow=none;html=1;rounded=0;exitX=0.333;exitY=0.005;exitDx=0;exitDy=0;exitPerimeter=0;jumpStyle=arc;entryX=0.75;entryY=1;entryDx=0;entryDy=0;" parent="1" edge="1">
          <mxGeometry width="50" height="50" relative="1" as="geometry">
            <mxPoint x="332.9200000000001" y="400" as="sourcePoint" />
            <mxPoint x="330" y="-11" as="targetPoint" />
          </mxGeometry>
        </mxCell>
        <mxCell id="InJ1SGGTuU8PRHhpm9jM-6" value="" style="endArrow=none;html=1;rounded=0;exitX=0.667;exitY=0;exitDx=0;exitDy=0;exitPerimeter=0;entryX=0.332;entryY=0.982;entryDx=0;entryDy=0;entryPerimeter=0;" parent="1" edge="1">
          <mxGeometry width="50" height="50" relative="1" as="geometry">
            <mxPoint x="445.3399999999999" y="400" as="sourcePoint" />
            <mxPoint x="444.5" y="-11.539999999999736" as="targetPoint" />
          </mxGeometry>
        </mxCell>
        <mxCell id="InJ1SGGTuU8PRHhpm9jM-8" value="G1" style="text;html=1;strokeColor=none;fillColor=none;align=center;verticalAlign=middle;whiteSpace=wrap;rounded=0;" parent="1" vertex="1">
          <mxGeometry x="320" y="-210" width="60" height="30" as="geometry" />
        </mxCell>
        <mxCell id="InJ1SGGTuU8PRHhpm9jM-9" value="G2" style="text;html=1;strokeColor=none;fillColor=none;align=center;verticalAlign=middle;whiteSpace=wrap;rounded=0;" parent="1" vertex="1">
          <mxGeometry x="428" y="-210" width="60" height="30" as="geometry" />
        </mxCell>
        <mxCell id="InJ1SGGTuU8PRHhpm9jM-10" value="" style="rounded=0;whiteSpace=wrap;html=1;" parent="1" vertex="1">
          <mxGeometry x="173" y="270" width="120" height="40" as="geometry" />
        </mxCell>
        <mxCell id="InJ1SGGTuU8PRHhpm9jM-11" value="" style="rounded=0;whiteSpace=wrap;html=1;" parent="1" vertex="1">
          <mxGeometry x="533" y="270" width="120" height="40" as="geometry" />
        </mxCell>
        <mxCell id="InJ1SGGTuU8PRHhpm9jM-12" value="" style="endArrow=none;html=1;rounded=0;" parent="1" edge="1">
          <mxGeometry width="50" height="50" relative="1" as="geometry">
            <mxPoint x="308" y="400" as="sourcePoint" />
            <mxPoint x="238" y="310" as="targetPoint" />
            <Array as="points">
              <mxPoint x="308" y="360" />
              <mxPoint x="238" y="360" />
            </Array>
          </mxGeometry>
        </mxCell>
        <mxCell id="InJ1SGGTuU8PRHhpm9jM-13" value="" style="endArrow=none;html=1;rounded=0;" parent="1" edge="1">
          <mxGeometry width="50" height="50" relative="1" as="geometry">
            <mxPoint x="508" y="400" as="sourcePoint" />
            <mxPoint x="568" y="310" as="targetPoint" />
            <Array as="points">
              <mxPoint x="508" y="360" />
              <mxPoint x="568" y="360" />
            </Array>
          </mxGeometry>
        </mxCell>
        <mxCell id="InJ1SGGTuU8PRHhpm9jM-15" value="REG. BLOCK 1" style="text;html=1;strokeColor=none;fillColor=none;align=center;verticalAlign=middle;whiteSpace=wrap;rounded=0;" parent="1" vertex="1">
          <mxGeometry x="178" y="275" width="110" height="30" as="geometry" />
        </mxCell>
        <mxCell id="InJ1SGGTuU8PRHhpm9jM-16" value="REG. BLOCK 2" style="text;html=1;strokeColor=none;fillColor=none;align=center;verticalAlign=middle;whiteSpace=wrap;rounded=0;" parent="1" vertex="1">
          <mxGeometry x="538" y="275" width="110" height="30" as="geometry" />
        </mxCell>
        <mxCell id="InJ1SGGTuU8PRHhpm9jM-19" value="" style="endArrow=none;html=1;rounded=0;entryX=0.5;entryY=1;entryDx=0;entryDy=0;exitX=0.5;exitY=0;exitDx=0;exitDy=0;jumpStyle=arc;" parent="1" source="_lhoNvbre-MPtyhj8p-p-2" target="InJ1SGGTuU8PRHhpm9jM-1" edge="1">
          <mxGeometry width="50" height="50" relative="1" as="geometry">
            <mxPoint x="413" y="750" as="sourcePoint" />
            <mxPoint x="523" y="640" as="targetPoint" />
          </mxGeometry>
        </mxCell>
        <mxCell id="InJ1SGGTuU8PRHhpm9jM-20" value="" style="endArrow=none;html=1;rounded=0;exitX=0.5;exitY=0;exitDx=0;exitDy=0;" parent="1" source="InJ1SGGTuU8PRHhpm9jM-10" edge="1">
          <mxGeometry width="50" height="50" relative="1" as="geometry">
            <mxPoint x="220" y="230" as="sourcePoint" />
            <mxPoint x="333" y="600" as="targetPoint" />
            <Array as="points">
              <mxPoint x="233" y="170" />
              <mxPoint x="133" y="170" />
              <mxPoint x="133" y="650" />
              <mxPoint x="333" y="650" />
            </Array>
          </mxGeometry>
        </mxCell>
        <mxCell id="InJ1SGGTuU8PRHhpm9jM-21" value="" style="endArrow=none;html=1;rounded=0;exitX=0.474;exitY=-0.05;exitDx=0;exitDy=0;exitPerimeter=0;" parent="1" source="InJ1SGGTuU8PRHhpm9jM-11" edge="1">
          <mxGeometry width="50" height="50" relative="1" as="geometry">
            <mxPoint x="590" y="260" as="sourcePoint" />
            <mxPoint x="493" y="600" as="targetPoint" />
            <Array as="points">
              <mxPoint x="590" y="170" />
              <mxPoint x="693" y="170" />
              <mxPoint x="693" y="650" />
              <mxPoint x="493" y="650" />
            </Array>
          </mxGeometry>
        </mxCell>
        <mxCell id="_lhoNvbre-MPtyhj8p-p-1" value="" style="shape=trapezoid;perimeter=trapezoidPerimeter;whiteSpace=wrap;html=1;fixedSize=1;direction=west;" parent="1" vertex="1">
          <mxGeometry x="454" y="760" width="80" height="30" as="geometry" />
        </mxCell>
        <mxCell id="_lhoNvbre-MPtyhj8p-p-2" value="CONTROLLOREÂ &#xa;MANCHE" style="swimlane;startSize=0;verticalAlign=top;horizontal=1;" parent="1" vertex="1">
          <mxGeometry x="358" y="921" width="110" height="110" as="geometry">
            <mxRectangle x="358" y="830" width="140" height="40" as="alternateBounds" />
          </mxGeometry>
        </mxCell>
        <mxCell id="Bt-MRxAjFV4AakwYzhv4-3" value="CONTROLLORE MANCHE" style="whiteSpace=wrap;html=1;aspect=fixed;" parent="_lhoNvbre-MPtyhj8p-p-2" vertex="1">
          <mxGeometry width="110" height="110" as="geometry" />
        </mxCell>
        <mxCell id="_lhoNvbre-MPtyhj8p-p-5" value="" style="endArrow=none;html=1;rounded=0;exitX=0.5;exitY=0;exitDx=0;exitDy=0;entryX=0.5;entryY=1;entryDx=0;entryDy=0;" parent="1" source="_lhoNvbre-MPtyhj8p-p-8" target="_lhoNvbre-MPtyhj8p-p-6" edge="1">
          <mxGeometry width="50" height="50" relative="1" as="geometry">
            <mxPoint x="509.62" y="760" as="sourcePoint" />
            <mxPoint x="510" y="701" as="targetPoint" />
          </mxGeometry>
        </mxCell>
        <mxCell id="_lhoNvbre-MPtyhj8p-p-6" value="00000" style="text;html=1;strokeColor=none;fillColor=none;align=center;verticalAlign=middle;whiteSpace=wrap;rounded=0;" parent="1" vertex="1">
          <mxGeometry x="481" y="671" width="60" height="30" as="geometry" />
        </mxCell>
        <mxCell id="_lhoNvbre-MPtyhj8p-p-7" value="1" style="text;html=1;strokeColor=none;fillColor=none;align=center;verticalAlign=middle;whiteSpace=wrap;rounded=0;" parent="1" vertex="1">
          <mxGeometry x="451" y="760" width="60" height="30" as="geometry" />
        </mxCell>
        <mxCell id="_lhoNvbre-MPtyhj8p-p-8" value="0" style="text;html=1;strokeColor=none;fillColor=none;align=center;verticalAlign=middle;whiteSpace=wrap;rounded=0;" parent="1" vertex="1">
          <mxGeometry x="481" y="760" width="60" height="30" as="geometry" />
        </mxCell>
        <mxCell id="_lhoNvbre-MPtyhj8p-p-9" value="REG. MANCHE CORRENTE" style="rounded=0;whiteSpace=wrap;html=1;" parent="1" vertex="1">
          <mxGeometry x="440" y="831" width="70" height="50" as="geometry" />
        </mxCell>
        <mxCell id="_lhoNvbre-MPtyhj8p-p-10" value="" style="endArrow=none;html=1;rounded=0;exitX=0.25;exitY=1;exitDx=0;exitDy=0;entryX=0.904;entryY=-0.008;entryDx=0;entryDy=0;entryPerimeter=0;" parent="1" source="_lhoNvbre-MPtyhj8p-p-9" target="_lhoNvbre-MPtyhj8p-p-2" edge="1">
          <mxGeometry width="50" height="50" relative="1" as="geometry">
            <mxPoint x="460" y="901" as="sourcePoint" />
            <mxPoint x="459" y="921" as="targetPoint" />
          </mxGeometry>
        </mxCell>
        <mxCell id="_lhoNvbre-MPtyhj8p-p-12" value="" style="endArrow=none;html=1;rounded=0;exitX=0.795;exitY=-0.023;exitDx=0;exitDy=0;entryX=0.25;entryY=1;entryDx=0;entryDy=0;exitPerimeter=0;" parent="1" source="_lhoNvbre-MPtyhj8p-p-9" target="_lhoNvbre-MPtyhj8p-p-8" edge="1">
          <mxGeometry width="50" height="50" relative="1" as="geometry">
            <mxPoint x="466" y="911" as="sourcePoint" />
            <mxPoint x="466" y="931" as="targetPoint" />
          </mxGeometry>
        </mxCell>
        <mxCell id="_lhoNvbre-MPtyhj8p-p-14" value="" style="endArrow=none;html=1;rounded=0;jumpStyle=arc;exitX=0.543;exitY=0.994;exitDx=0;exitDy=0;exitPerimeter=0;" parent="1" source="Bt-MRxAjFV4AakwYzhv4-3" edge="1">
          <mxGeometry width="50" height="50" relative="1" as="geometry">
            <mxPoint x="530" y="1040" as="sourcePoint" />
            <mxPoint x="480" y="761" as="targetPoint" />
            <Array as="points">
              <mxPoint x="418" y="1080" />
              <mxPoint x="600" y="1080" />
              <mxPoint x="600" y="720" />
              <mxPoint x="480" y="721" />
            </Array>
          </mxGeometry>
        </mxCell>
        <mxCell id="_lhoNvbre-MPtyhj8p-p-15" value="" style="shape=trapezoid;perimeter=trapezoidPerimeter;whiteSpace=wrap;html=1;fixedSize=1;direction=west;rotation=-180;" parent="1" vertex="1">
          <mxGeometry x="304" y="-40" width="88" height="30" as="geometry" />
        </mxCell>
        <mxCell id="_lhoNvbre-MPtyhj8p-p-19" value="0" style="text;html=1;align=center;verticalAlign=middle;resizable=0;points=[];autosize=1;strokeColor=none;fillColor=none;" parent="1" vertex="1">
          <mxGeometry x="320" y="-40" width="30" height="30" as="geometry" />
        </mxCell>
        <mxCell id="_lhoNvbre-MPtyhj8p-p-20" value="1" style="text;html=1;align=center;verticalAlign=middle;resizable=0;points=[];autosize=1;strokeColor=none;fillColor=none;" parent="1" vertex="1">
          <mxGeometry x="345" y="-40" width="30" height="30" as="geometry" />
        </mxCell>
        <mxCell id="_lhoNvbre-MPtyhj8p-p-22" value="" style="shape=trapezoid;perimeter=trapezoidPerimeter;whiteSpace=wrap;html=1;fixedSize=1;direction=west;rotation=-180;" parent="1" vertex="1">
          <mxGeometry x="414" y="-40" width="88" height="30" as="geometry" />
        </mxCell>
        <mxCell id="_lhoNvbre-MPtyhj8p-p-23" value="0" style="text;html=1;align=center;verticalAlign=middle;resizable=0;points=[];autosize=1;strokeColor=none;fillColor=none;" parent="1" vertex="1">
          <mxGeometry x="430" y="-40" width="30" height="30" as="geometry" />
        </mxCell>
        <mxCell id="_lhoNvbre-MPtyhj8p-p-24" value="1" style="text;html=1;align=center;verticalAlign=middle;resizable=0;points=[];autosize=1;strokeColor=none;fillColor=none;" parent="1" vertex="1">
          <mxGeometry x="458" y="-40" width="30" height="30" as="geometry" />
        </mxCell>
        <mxCell id="_lhoNvbre-MPtyhj8p-p-32" value="" style="endArrow=none;html=1;rounded=0;exitX=0.5;exitY=0;exitDx=0;exitDy=0;" parent="1" source="_lhoNvbre-MPtyhj8p-p-33" edge="1">
          <mxGeometry width="50" height="50" relative="1" as="geometry">
            <mxPoint x="460" y="1191" as="sourcePoint" />
            <mxPoint x="501" y="1080" as="targetPoint" />
          </mxGeometry>
        </mxCell>
        <mxCell id="_lhoNvbre-MPtyhj8p-p-33" value="=" style="swimlane;startSize=0;verticalAlign=top;horizontal=1;" parent="1" vertex="1">
          <mxGeometry x="482" y="1201" width="38" height="35" as="geometry" />
        </mxCell>
        <mxCell id="Bt-MRxAjFV4AakwYzhv4-9" value="=" style="whiteSpace=wrap;html=1;aspect=fixed;" parent="_lhoNvbre-MPtyhj8p-p-33" vertex="1">
          <mxGeometry x="-1" y="-2.5" width="40" height="40" as="geometry" />
        </mxCell>
        <mxCell id="_lhoNvbre-MPtyhj8p-p-36" value="REG. &lt;br&gt;MANCHE MAX" style="rounded=0;whiteSpace=wrap;html=1;" parent="1" vertex="1">
          <mxGeometry x="727" y="565" width="100" height="35" as="geometry" />
        </mxCell>
        <mxCell id="_lhoNvbre-MPtyhj8p-p-39" value="" style="endArrow=none;html=1;rounded=0;exitX=0.5;exitY=0;exitDx=0;exitDy=0;" parent="1" edge="1">
          <mxGeometry width="50" height="50" relative="1" as="geometry">
            <mxPoint x="348.0000000000002" y="-40" as="sourcePoint" />
            <mxPoint x="348" y="-170" as="targetPoint" />
          </mxGeometry>
        </mxCell>
        <mxCell id="_lhoNvbre-MPtyhj8p-p-40" value="" style="endArrow=none;html=1;rounded=0;exitX=0.5;exitY=0;exitDx=0;exitDy=0;" parent="1" edge="1">
          <mxGeometry width="50" height="50" relative="1" as="geometry">
            <mxPoint x="457" y="-40" as="sourcePoint" />
            <mxPoint x="457" y="-172" as="targetPoint" />
          </mxGeometry>
        </mxCell>
        <mxCell id="_lhoNvbre-MPtyhj8p-p-44" value="" style="endArrow=none;html=1;rounded=0;jumpStyle=arc;exitX=0.45;exitY=1.072;exitDx=0;exitDy=0;exitPerimeter=0;entryX=0.25;entryY=0;entryDx=0;entryDy=0;" parent="1" source="_lhoNvbre-MPtyhj8p-p-20" target="WrRXt4d3My6ZRE51HuEJ-1" edge="1">
          <mxGeometry width="50" height="50" relative="1" as="geometry">
            <mxPoint x="330" y="40" as="sourcePoint" />
            <mxPoint x="820" y="120" as="targetPoint" />
            <Array as="points">
              <mxPoint x="359" y="40" />
              <mxPoint x="760" y="40" />
              <mxPoint x="768" y="40" />
            </Array>
          </mxGeometry>
        </mxCell>
        <mxCell id="_lhoNvbre-MPtyhj8p-p-45" value="" style="endArrow=none;html=1;rounded=0;jumpStyle=arc;exitX=0.469;exitY=0.998;exitDx=0;exitDy=0;exitPerimeter=0;entryX=0.823;entryY=0;entryDx=0;entryDy=0;entryPerimeter=0;" parent="1" source="_lhoNvbre-MPtyhj8p-p-24" target="WrRXt4d3My6ZRE51HuEJ-1" edge="1">
          <mxGeometry width="50" height="50" relative="1" as="geometry">
            <mxPoint x="438.5" y="60" as="sourcePoint" />
            <mxPoint x="770" y="120" as="targetPoint" />
            <Array as="points">
              <mxPoint x="472" y="20" />
              <mxPoint x="831" y="20" />
            </Array>
          </mxGeometry>
        </mxCell>
        <mxCell id="WrRXt4d3My6ZRE51HuEJ-1" value="CONTROLLOÂ &#xa;MANCHEÂ &#xa;MAX" style="swimlane;startSize=0;verticalAlign=top;horizontal=1;" parent="1" vertex="1">
          <mxGeometry x="740" y="120" width="110" height="110" as="geometry" />
        </mxCell>
        <mxCell id="Bt-MRxAjFV4AakwYzhv4-6" value="CONTROLLO MANCHE &lt;br&gt;MAX" style="rounded=0;whiteSpace=wrap;html=1;" parent="WrRXt4d3My6ZRE51HuEJ-1" vertex="1">
          <mxGeometry width="110" height="110" as="geometry" />
        </mxCell>
        <mxCell id="yJI003IEUT3BsTEjJ197-2" value="" style="shape=trapezoid;perimeter=trapezoidPerimeter;whiteSpace=wrap;html=1;fixedSize=1;direction=west;" parent="1" vertex="1">
          <mxGeometry x="720" y="470" width="80" height="30" as="geometry" />
        </mxCell>
        <mxCell id="yJI003IEUT3BsTEjJ197-3" value="1" style="text;html=1;strokeColor=none;fillColor=none;align=center;verticalAlign=middle;whiteSpace=wrap;rounded=0;" parent="1" vertex="1">
          <mxGeometry x="768.5" y="470" width="17" height="30" as="geometry" />
        </mxCell>
        <mxCell id="yJI003IEUT3BsTEjJ197-4" value="0" style="text;html=1;strokeColor=none;fillColor=none;align=center;verticalAlign=middle;whiteSpace=wrap;rounded=0;" parent="1" vertex="1">
          <mxGeometry x="740" y="470" width="17" height="30" as="geometry" />
        </mxCell>
        <mxCell id="yJI003IEUT3BsTEjJ197-6" value="" style="endArrow=none;html=1;rounded=0;jumpStyle=arc;exitX=0.25;exitY=0;exitDx=0;exitDy=0;" parent="1" source="yJI003IEUT3BsTEjJ197-4" edge="1">
          <mxGeometry width="50" height="50" relative="1" as="geometry">
            <mxPoint x="740" y="440" as="sourcePoint" />
            <mxPoint x="800" y="600" as="targetPoint" />
            <Array as="points">
              <mxPoint x="744" y="440" />
              <mxPoint x="890" y="440" />
              <mxPoint x="890" y="630" />
              <mxPoint x="800" y="630" />
            </Array>
          </mxGeometry>
        </mxCell>
        <mxCell id="yJI003IEUT3BsTEjJ197-7" value="" style="endArrow=none;html=1;rounded=0;entryX=0.5;entryY=0;entryDx=0;entryDy=0;exitX=0.32;exitY=-0.029;exitDx=0;exitDy=0;exitPerimeter=0;" parent="1" source="_lhoNvbre-MPtyhj8p-p-36" target="yJI003IEUT3BsTEjJ197-2" edge="1">
          <mxGeometry width="50" height="50" relative="1" as="geometry">
            <mxPoint x="550" y="660" as="sourcePoint" />
            <mxPoint x="600" y="610" as="targetPoint" />
            <Array as="points" />
          </mxGeometry>
        </mxCell>
        <mxCell id="yJI003IEUT3BsTEjJ197-10" value="" style="endArrow=none;html=1;rounded=0;" parent="1" edge="1">
          <mxGeometry width="50" height="50" relative="1" as="geometry">
            <mxPoint x="450" y="1080" as="sourcePoint" />
            <mxPoint x="450" y="1141" as="targetPoint" />
          </mxGeometry>
        </mxCell>
        <mxCell id="yJI003IEUT3BsTEjJ197-14" value="&amp;gt;=" style="rounded=0;whiteSpace=wrap;html=1;" parent="1" vertex="1">
          <mxGeometry x="427" y="1141" width="42" height="40" as="geometry" />
        </mxCell>
        <mxCell id="yJI003IEUT3BsTEjJ197-15" value="" style="endArrow=classic;html=1;rounded=0;entryX=0;entryY=0.5;entryDx=0;entryDy=0;fillColor=#008a00;strokeColor=#005700;strokeWidth=3;" parent="1" target="_lhoNvbre-MPtyhj8p-p-15" edge="1">
          <mxGeometry width="50" height="50" relative="1" as="geometry">
            <mxPoint x="-120" y="-320" as="sourcePoint" />
            <mxPoint x="-110" as="targetPoint" />
            <Array as="points">
              <mxPoint x="-120" y="-25" />
            </Array>
          </mxGeometry>
        </mxCell>
        <mxCell id="yJI003IEUT3BsTEjJ197-20" value="RESET" style="edgeLabel;html=1;align=center;verticalAlign=middle;resizable=0;points=[];" parent="yJI003IEUT3BsTEjJ197-15" vertex="1" connectable="0">
          <mxGeometry x="-0.9204" y="-2" relative="1" as="geometry">
            <mxPoint y="-1" as="offset" />
          </mxGeometry>
        </mxCell>
        <mxCell id="yJI003IEUT3BsTEjJ197-16" value="" style="endArrow=classic;html=1;rounded=0;entryX=0;entryY=0.5;entryDx=0;entryDy=0;fillColor=#008a00;strokeColor=#005700;jumpStyle=arc;strokeWidth=3;" parent="1" target="_lhoNvbre-MPtyhj8p-p-22" edge="1">
          <mxGeometry width="50" height="50" relative="1" as="geometry">
            <mxPoint x="80" y="-25" as="sourcePoint" />
            <mxPoint x="340" y="80" as="targetPoint" />
            <Array as="points">
              <mxPoint x="80" y="20" />
              <mxPoint x="400" y="20" />
              <mxPoint x="400" y="-25" />
            </Array>
          </mxGeometry>
        </mxCell>
        <mxCell id="yJI003IEUT3BsTEjJ197-17" value="" style="endArrow=classic;html=1;rounded=0;entryX=1;entryY=0.5;entryDx=0;entryDy=0;jumpStyle=arc;strokeWidth=3;fillColor=#008a00;strokeColor=#005700;" parent="1" target="yJI003IEUT3BsTEjJ197-2" edge="1">
          <mxGeometry width="50" height="50" relative="1" as="geometry">
            <mxPoint x="-120" y="-30" as="sourcePoint" />
            <mxPoint x="650" y="180" as="targetPoint" />
            <Array as="points">
              <mxPoint x="-120" y="300" />
              <mxPoint x="-120" y="380" />
              <mxPoint x="650" y="380" />
              <mxPoint x="650" y="485" />
            </Array>
          </mxGeometry>
        </mxCell>
        <mxCell id="yJI003IEUT3BsTEjJ197-18" value="" style="endArrow=classic;html=1;rounded=0;fillColor=#008a00;strokeColor=#005700;strokeWidth=3;jumpStyle=arc;" parent="1" target="_lhoNvbre-MPtyhj8p-p-7" edge="1">
          <mxGeometry width="50" height="50" relative="1" as="geometry">
            <mxPoint x="-120" y="380" as="sourcePoint" />
            <mxPoint x="-120" y="740" as="targetPoint" />
            <Array as="points">
              <mxPoint x="-120" y="775" />
            </Array>
          </mxGeometry>
        </mxCell>
        <mxCell id="yJI003IEUT3BsTEjJ197-21" value="" style="endArrow=classic;html=1;rounded=0;entryX=0;entryY=0.5;entryDx=0;entryDy=0;fillColor=#6a00ff;strokeColor=#3700CC;jumpStyle=arc;strokeWidth=3;" parent="1" target="InJ1SGGTuU8PRHhpm9jM-10" edge="1">
          <mxGeometry width="50" height="50" relative="1" as="geometry">
            <mxPoint x="-180" y="-310" as="sourcePoint" />
            <mxPoint x="-180" y="280" as="targetPoint" />
            <Array as="points">
              <mxPoint x="-180" y="290" />
            </Array>
          </mxGeometry>
        </mxCell>
        <mxCell id="yJI003IEUT3BsTEjJ197-22" value="CLOCK" style="edgeLabel;html=1;align=center;verticalAlign=middle;resizable=0;points=[];" parent="yJI003IEUT3BsTEjJ197-21" vertex="1" connectable="0">
          <mxGeometry x="-0.9116" relative="1" as="geometry">
            <mxPoint y="1" as="offset" />
          </mxGeometry>
        </mxCell>
        <mxCell id="yJI003IEUT3BsTEjJ197-23" value="" style="endArrow=classic;html=1;rounded=0;entryX=0;entryY=0.5;entryDx=0;entryDy=0;fillColor=#6a00ff;strokeColor=#3700CC;strokeWidth=3;jumpStyle=arc;" parent="1" target="InJ1SGGTuU8PRHhpm9jM-11" edge="1">
          <mxGeometry width="50" height="50" relative="1" as="geometry">
            <mxPoint x="40" y="290" as="sourcePoint" />
            <mxPoint x="300" y="260" as="targetPoint" />
            <Array as="points">
              <mxPoint x="40" y="340" />
              <mxPoint x="510" y="340" />
              <mxPoint x="510" y="290" />
            </Array>
          </mxGeometry>
        </mxCell>
        <mxCell id="yJI003IEUT3BsTEjJ197-25" value="" style="endArrow=classic;html=1;rounded=0;entryX=0;entryY=0.5;entryDx=0;entryDy=0;fillColor=#6a00ff;strokeColor=#3700CC;strokeWidth=3;jumpStyle=arc;" parent="1" target="_lhoNvbre-MPtyhj8p-p-36" edge="1">
          <mxGeometry width="50" height="50" relative="1" as="geometry">
            <mxPoint x="200" y="855" as="sourcePoint" />
            <mxPoint x="727" y="587.5" as="targetPoint" />
            <Array as="points">
              <mxPoint x="200" y="630" />
              <mxPoint x="700" y="630" />
              <mxPoint x="700" y="583" />
            </Array>
          </mxGeometry>
        </mxCell>
        <mxCell id="yJI003IEUT3BsTEjJ197-27" value="MANCHE" style="text;html=1;align=center;verticalAlign=middle;resizable=0;points=[];autosize=1;strokeColor=none;fillColor=none;" parent="1" vertex="1">
          <mxGeometry x="240" y="1290" width="80" height="30" as="geometry" />
        </mxCell>
        <mxCell id="yJI003IEUT3BsTEjJ197-29" value="" style="endArrow=classic;html=1;rounded=0;exitX=0;exitY=0.5;exitDx=0;exitDy=0;strokeWidth=4;fillColor=#e3c800;strokeColor=#B09500;" parent="1" edge="1">
          <mxGeometry width="50" height="50" relative="1" as="geometry">
            <mxPoint x="427" y="1161" as="sourcePoint" />
            <mxPoint x="-250" y="1161" as="targetPoint" />
          </mxGeometry>
        </mxCell>
        <mxCell id="yJI003IEUT3BsTEjJ197-33" value="CONTROLLO&amp;nbsp;&lt;br&gt;MANCHE MIN" style="edgeLabel;html=1;align=center;verticalAlign=middle;resizable=0;points=[];" parent="yJI003IEUT3BsTEjJ197-29" vertex="1" connectable="0">
          <mxGeometry x="0.8395" relative="1" as="geometry">
            <mxPoint x="16" as="offset" />
          </mxGeometry>
        </mxCell>
        <mxCell id="yJI003IEUT3BsTEjJ197-30" value="" style="endArrow=classic;html=1;rounded=0;strokeWidth=4;fillColor=#e3c800;strokeColor=#B09500;" parent="1" edge="1">
          <mxGeometry width="50" height="50" relative="1" as="geometry">
            <mxPoint x="280" y="1091" as="sourcePoint" />
            <mxPoint x="-240" y="1091" as="targetPoint" />
          </mxGeometry>
        </mxCell>
        <mxCell id="yJI003IEUT3BsTEjJ197-31" value="MANCHE" style="edgeLabel;html=1;align=center;verticalAlign=middle;resizable=0;points=[];" parent="yJI003IEUT3BsTEjJ197-30" vertex="1" connectable="0">
          <mxGeometry x="0.8244" y="4" relative="1" as="geometry">
            <mxPoint x="15" y="-4" as="offset" />
          </mxGeometry>
        </mxCell>
        <mxCell id="yJI003IEUT3BsTEjJ197-36" value="" style="endArrow=none;html=1;rounded=0;" parent="1" edge="1">
          <mxGeometry width="50" height="50" relative="1" as="geometry">
            <mxPoint x="-136" y="-221" as="sourcePoint" />
            <mxPoint x="-106" y="-251" as="targetPoint" />
          </mxGeometry>
        </mxCell>
        <mxCell id="yJI003IEUT3BsTEjJ197-37" value="" style="endArrow=none;html=1;rounded=0;" parent="1" edge="1">
          <mxGeometry width="50" height="50" relative="1" as="geometry">
            <mxPoint x="445" y="-80" as="sourcePoint" />
            <mxPoint x="475" y="-110" as="targetPoint" />
          </mxGeometry>
        </mxCell>
        <mxCell id="yJI003IEUT3BsTEjJ197-38" value="1" style="text;html=1;align=center;verticalAlign=middle;resizable=0;points=[];autosize=1;strokeColor=none;fillColor=none;" parent="1" vertex="1">
          <mxGeometry x="-115" y="-250" width="30" height="30" as="geometry" />
        </mxCell>
        <mxCell id="yJI003IEUT3BsTEjJ197-40" value="" style="endArrow=none;html=1;rounded=0;" parent="1" edge="1">
          <mxGeometry width="50" height="50" relative="1" as="geometry">
            <mxPoint x="335" y="-80" as="sourcePoint" />
            <mxPoint x="365" y="-110" as="targetPoint" />
          </mxGeometry>
        </mxCell>
        <mxCell id="yJI003IEUT3BsTEjJ197-41" value="2" style="text;html=1;align=center;verticalAlign=middle;resizable=0;points=[];autosize=1;strokeColor=none;fillColor=none;" parent="1" vertex="1">
          <mxGeometry x="345" y="-102" width="30" height="30" as="geometry" />
        </mxCell>
        <mxCell id="yJI003IEUT3BsTEjJ197-42" value="2" style="text;html=1;align=center;verticalAlign=middle;resizable=0;points=[];autosize=1;strokeColor=none;fillColor=none;" parent="1" vertex="1">
          <mxGeometry x="455" y="-102" width="30" height="30" as="geometry" />
        </mxCell>
        <mxCell id="yJI003IEUT3BsTEjJ197-44" value="" style="endArrow=none;html=1;rounded=0;" parent="1" edge="1">
          <mxGeometry width="50" height="50" relative="1" as="geometry">
            <mxPoint x="315" y="80" as="sourcePoint" />
            <mxPoint x="345" y="50" as="targetPoint" />
          </mxGeometry>
        </mxCell>
        <mxCell id="yJI003IEUT3BsTEjJ197-45" value="" style="endArrow=none;html=1;rounded=0;" parent="1" edge="1">
          <mxGeometry width="50" height="50" relative="1" as="geometry">
            <mxPoint x="430" y="80" as="sourcePoint" />
            <mxPoint x="460" y="50" as="targetPoint" />
          </mxGeometry>
        </mxCell>
        <mxCell id="yJI003IEUT3BsTEjJ197-46" value="" style="endArrow=none;html=1;rounded=0;" parent="1" edge="1">
          <mxGeometry width="50" height="50" relative="1" as="geometry">
            <mxPoint x="755.5" y="100" as="sourcePoint" />
            <mxPoint x="785.5" y="70" as="targetPoint" />
          </mxGeometry>
        </mxCell>
        <mxCell id="yJI003IEUT3BsTEjJ197-47" value="" style="endArrow=none;html=1;rounded=0;" parent="1" edge="1">
          <mxGeometry width="50" height="50" relative="1" as="geometry">
            <mxPoint x="820" y="100" as="sourcePoint" />
            <mxPoint x="850" y="70" as="targetPoint" />
          </mxGeometry>
        </mxCell>
        <mxCell id="yJI003IEUT3BsTEjJ197-48" value="2" style="text;html=1;align=center;verticalAlign=middle;resizable=0;points=[];autosize=1;strokeColor=none;fillColor=none;" parent="1" vertex="1">
          <mxGeometry x="325" y="58" width="30" height="30" as="geometry" />
        </mxCell>
        <mxCell id="yJI003IEUT3BsTEjJ197-49" value="2" style="text;html=1;align=center;verticalAlign=middle;resizable=0;points=[];autosize=1;strokeColor=none;fillColor=none;" parent="1" vertex="1">
          <mxGeometry x="445" y="58" width="30" height="30" as="geometry" />
        </mxCell>
        <mxCell id="yJI003IEUT3BsTEjJ197-50" value="2" style="text;html=1;align=center;verticalAlign=middle;resizable=0;points=[];autosize=1;strokeColor=none;fillColor=none;" parent="1" vertex="1">
          <mxGeometry x="765" y="78" width="30" height="30" as="geometry" />
        </mxCell>
        <mxCell id="yJI003IEUT3BsTEjJ197-51" value="2" style="text;html=1;align=center;verticalAlign=middle;resizable=0;points=[];autosize=1;strokeColor=none;fillColor=none;" parent="1" vertex="1">
          <mxGeometry x="835" y="78" width="30" height="30" as="geometry" />
        </mxCell>
        <mxCell id="yJI003IEUT3BsTEjJ197-54" value="" style="endArrow=none;html=1;rounded=0;" parent="1" edge="1">
          <mxGeometry width="50" height="50" relative="1" as="geometry">
            <mxPoint x="120" y="460" as="sourcePoint" />
            <mxPoint x="150" y="430" as="targetPoint" />
          </mxGeometry>
        </mxCell>
        <mxCell id="yJI003IEUT3BsTEjJ197-55" value="" style="endArrow=none;html=1;rounded=0;" parent="1" edge="1">
          <mxGeometry width="50" height="50" relative="1" as="geometry">
            <mxPoint x="260" y="370" as="sourcePoint" />
            <mxPoint x="282" y="350" as="targetPoint" />
          </mxGeometry>
        </mxCell>
        <mxCell id="yJI003IEUT3BsTEjJ197-56" value="" style="endArrow=none;html=1;rounded=0;" parent="1" edge="1">
          <mxGeometry width="50" height="50" relative="1" as="geometry">
            <mxPoint x="533" y="370" as="sourcePoint" />
            <mxPoint x="555" y="350" as="targetPoint" />
          </mxGeometry>
        </mxCell>
        <mxCell id="yJI003IEUT3BsTEjJ197-57" value="" style="endArrow=none;html=1;rounded=0;" parent="1" edge="1">
          <mxGeometry width="50" height="50" relative="1" as="geometry">
            <mxPoint x="679" y="457" as="sourcePoint" />
            <mxPoint x="709" y="427" as="targetPoint" />
          </mxGeometry>
        </mxCell>
        <mxCell id="yJI003IEUT3BsTEjJ197-58" value="2" style="text;html=1;align=center;verticalAlign=middle;resizable=0;points=[];autosize=1;strokeColor=none;fillColor=none;" parent="1" vertex="1">
          <mxGeometry x="262" y="353" width="30" height="30" as="geometry" />
        </mxCell>
        <mxCell id="yJI003IEUT3BsTEjJ197-60" value="2" style="text;html=1;align=center;verticalAlign=middle;resizable=0;points=[];autosize=1;strokeColor=none;fillColor=none;" parent="1" vertex="1">
          <mxGeometry x="533" y="353" width="30" height="30" as="geometry" />
        </mxCell>
        <mxCell id="yJI003IEUT3BsTEjJ197-61" value="2" style="text;html=1;align=center;verticalAlign=middle;resizable=0;points=[];autosize=1;strokeColor=none;fillColor=none;" parent="1" vertex="1">
          <mxGeometry x="690" y="430" width="30" height="30" as="geometry" />
        </mxCell>
        <mxCell id="yJI003IEUT3BsTEjJ197-62" value="2" style="text;html=1;align=center;verticalAlign=middle;resizable=0;points=[];autosize=1;strokeColor=none;fillColor=none;" parent="1" vertex="1">
          <mxGeometry x="130" y="436" width="30" height="30" as="geometry" />
        </mxCell>
        <mxCell id="yJI003IEUT3BsTEjJ197-63" value="" style="endArrow=none;html=1;rounded=0;" parent="1" edge="1">
          <mxGeometry width="50" height="50" relative="1" as="geometry">
            <mxPoint x="400" y="731" as="sourcePoint" />
            <mxPoint x="430" y="701" as="targetPoint" />
          </mxGeometry>
        </mxCell>
        <mxCell id="yJI003IEUT3BsTEjJ197-64" value="2" style="text;html=1;align=center;verticalAlign=middle;resizable=0;points=[];autosize=1;strokeColor=none;fillColor=none;" parent="1" vertex="1">
          <mxGeometry x="410" y="711" width="30" height="30" as="geometry" />
        </mxCell>
        <mxCell id="yJI003IEUT3BsTEjJ197-66" value="2" style="text;html=1;align=center;verticalAlign=middle;resizable=0;points=[];autosize=1;strokeColor=none;fillColor=none;" parent="1" vertex="1">
          <mxGeometry x="275" y="891" width="30" height="30" as="geometry" />
        </mxCell>
        <mxCell id="yJI003IEUT3BsTEjJ197-67" value="" style="endArrow=none;html=1;rounded=0;" parent="1" edge="1">
          <mxGeometry width="50" height="50" relative="1" as="geometry">
            <mxPoint x="470" y="752" as="sourcePoint" />
            <mxPoint x="490" y="732" as="targetPoint" />
          </mxGeometry>
        </mxCell>
        <mxCell id="yJI003IEUT3BsTEjJ197-68" value="5" style="text;html=1;align=center;verticalAlign=middle;resizable=0;points=[];autosize=1;strokeColor=none;fillColor=none;" parent="1" vertex="1">
          <mxGeometry x="473" y="730" width="30" height="30" as="geometry" />
        </mxCell>
        <mxCell id="yJI003IEUT3BsTEjJ197-69" value="5" style="text;html=1;align=center;verticalAlign=middle;resizable=0;points=[];autosize=1;strokeColor=none;fillColor=none;" parent="1" vertex="1">
          <mxGeometry x="488" y="791" width="30" height="30" as="geometry" />
        </mxCell>
        <mxCell id="yJI003IEUT3BsTEjJ197-70" value="" style="endArrow=none;html=1;rounded=0;entryX=0.659;entryY=0.036;entryDx=0;entryDy=0;entryPerimeter=0;" parent="1" edge="1">
          <mxGeometry width="50" height="50" relative="1" as="geometry">
            <mxPoint x="491.87" y="810" as="sourcePoint" />
            <mxPoint x="497.9999999999999" y="801.8" as="targetPoint" />
          </mxGeometry>
        </mxCell>
        <mxCell id="yJI003IEUT3BsTEjJ197-72" value="" style="endArrow=none;html=1;rounded=0;" parent="1" edge="1">
          <mxGeometry width="50" height="50" relative="1" as="geometry">
            <mxPoint x="452" y="904" as="sourcePoint" />
            <mxPoint x="462" y="894" as="targetPoint" />
          </mxGeometry>
        </mxCell>
        <mxCell id="yJI003IEUT3BsTEjJ197-73" value="5" style="text;html=1;align=center;verticalAlign=middle;resizable=0;points=[];autosize=1;strokeColor=none;fillColor=none;" parent="1" vertex="1">
          <mxGeometry x="449" y="886" width="30" height="30" as="geometry" />
        </mxCell>
        <mxCell id="yJI003IEUT3BsTEjJ197-74" value="5" style="text;html=1;align=center;verticalAlign=middle;resizable=0;points=[];autosize=1;strokeColor=none;fillColor=none;" parent="1" vertex="1">
          <mxGeometry x="445" y="1099" width="30" height="30" as="geometry" />
        </mxCell>
        <mxCell id="yJI003IEUT3BsTEjJ197-75" value="" style="endArrow=none;html=1;rounded=0;" parent="1" edge="1">
          <mxGeometry width="50" height="50" relative="1" as="geometry">
            <mxPoint x="440" y="1119" as="sourcePoint" />
            <mxPoint x="460" y="1099" as="targetPoint" />
          </mxGeometry>
        </mxCell>
        <mxCell id="yJI003IEUT3BsTEjJ197-76" value="5" style="text;html=1;align=center;verticalAlign=middle;resizable=0;points=[];autosize=1;strokeColor=none;fillColor=none;" parent="1" vertex="1">
          <mxGeometry x="411" y="1041" width="30" height="30" as="geometry" />
        </mxCell>
        <mxCell id="yJI003IEUT3BsTEjJ197-77" value="" style="endArrow=none;html=1;rounded=0;" parent="1" edge="1">
          <mxGeometry width="50" height="50" relative="1" as="geometry">
            <mxPoint x="408" y="1064" as="sourcePoint" />
            <mxPoint x="428" y="1044" as="targetPoint" />
          </mxGeometry>
        </mxCell>
        <mxCell id="yJI003IEUT3BsTEjJ197-78" value="" style="endArrow=none;html=1;rounded=0;" parent="1" edge="1">
          <mxGeometry width="50" height="50" relative="1" as="geometry">
            <mxPoint x="488" y="1141" as="sourcePoint" />
            <mxPoint x="508" y="1121" as="targetPoint" />
          </mxGeometry>
        </mxCell>
        <mxCell id="yJI003IEUT3BsTEjJ197-79" value="5" style="text;html=1;align=center;verticalAlign=middle;resizable=0;points=[];autosize=1;strokeColor=none;fillColor=none;" parent="1" vertex="1">
          <mxGeometry x="496" y="1119" width="30" height="30" as="geometry" />
        </mxCell>
        <mxCell id="yJI003IEUT3BsTEjJ197-80" value="" style="endArrow=none;html=1;rounded=0;" parent="1" edge="1">
          <mxGeometry width="50" height="50" relative="1" as="geometry">
            <mxPoint x="9" y="1105" as="sourcePoint" />
            <mxPoint x="39" y="1077" as="targetPoint" />
          </mxGeometry>
        </mxCell>
        <mxCell id="yJI003IEUT3BsTEjJ197-81" value="" style="endArrow=none;html=1;rounded=0;" parent="1" edge="1">
          <mxGeometry width="50" height="50" relative="1" as="geometry">
            <mxPoint x="10" y="1174" as="sourcePoint" />
            <mxPoint x="40" y="1146" as="targetPoint" />
          </mxGeometry>
        </mxCell>
        <mxCell id="yJI003IEUT3BsTEjJ197-82" value="" style="endArrow=none;html=1;rounded=0;" parent="1" edge="1">
          <mxGeometry width="50" height="50" relative="1" as="geometry">
            <mxPoint x="11" y="1231" as="sourcePoint" />
            <mxPoint x="41" y="1203" as="targetPoint" />
          </mxGeometry>
        </mxCell>
        <mxCell id="yJI003IEUT3BsTEjJ197-83" value="1" style="text;html=1;align=center;verticalAlign=middle;resizable=0;points=[];autosize=1;strokeColor=none;fillColor=none;" parent="1" vertex="1">
          <mxGeometry x="15" y="1219" width="30" height="30" as="geometry" />
        </mxCell>
        <mxCell id="yJI003IEUT3BsTEjJ197-84" value="1" style="text;html=1;align=center;verticalAlign=middle;resizable=0;points=[];autosize=1;strokeColor=none;fillColor=none;" parent="1" vertex="1">
          <mxGeometry x="15" y="1159" width="30" height="30" as="geometry" />
        </mxCell>
        <mxCell id="yJI003IEUT3BsTEjJ197-85" value="2" style="text;html=1;align=center;verticalAlign=middle;resizable=0;points=[];autosize=1;strokeColor=none;fillColor=none;" parent="1" vertex="1">
          <mxGeometry x="15" y="1089" width="30" height="30" as="geometry" />
        </mxCell>
        <mxCell id="yJI003IEUT3BsTEjJ197-86" value="" style="endArrow=none;html=1;rounded=0;" parent="1" edge="1">
          <mxGeometry width="50" height="50" relative="1" as="geometry">
            <mxPoint x="761" y="347" as="sourcePoint" />
            <mxPoint x="793" y="310" as="targetPoint" />
          </mxGeometry>
        </mxCell>
        <mxCell id="yJI003IEUT3BsTEjJ197-87" value="5" style="text;html=1;align=center;verticalAlign=middle;resizable=0;points=[];autosize=1;strokeColor=none;fillColor=none;" parent="1" vertex="1">
          <mxGeometry x="775" y="328" width="30" height="30" as="geometry" />
        </mxCell>
        <mxCell id="yJI003IEUT3BsTEjJ197-88" value="" style="endArrow=none;html=1;rounded=0;" parent="1" edge="1">
          <mxGeometry width="50" height="50" relative="1" as="geometry">
            <mxPoint x="747" y="540" as="sourcePoint" />
            <mxPoint x="772" y="520" as="targetPoint" />
          </mxGeometry>
        </mxCell>
        <mxCell id="yJI003IEUT3BsTEjJ197-89" value="" style="endArrow=none;html=1;rounded=0;" parent="1" edge="1">
          <mxGeometry width="50" height="50" relative="1" as="geometry">
            <mxPoint x="743" y="819" as="sourcePoint" />
            <mxPoint x="773" y="789" as="targetPoint" />
          </mxGeometry>
        </mxCell>
        <mxCell id="yJI003IEUT3BsTEjJ197-90" value="&lt;br&gt;5&lt;br&gt;" style="text;html=1;align=center;verticalAlign=middle;resizable=0;points=[];autosize=1;strokeColor=none;fillColor=none;" parent="1" vertex="1">
          <mxGeometry x="755" y="784" width="30" height="40" as="geometry" />
        </mxCell>
        <mxCell id="yJI003IEUT3BsTEjJ197-91" value="5" style="text;html=1;align=center;verticalAlign=middle;resizable=0;points=[];autosize=1;strokeColor=none;fillColor=none;" parent="1" vertex="1">
          <mxGeometry x="757" y="520" width="30" height="30" as="geometry" />
        </mxCell>
        <mxCell id="yJI003IEUT3BsTEjJ197-92" value="" style="endArrow=none;html=1;rounded=0;" parent="1" edge="1">
          <mxGeometry width="50" height="50" relative="1" as="geometry">
            <mxPoint x="880" y="530" as="sourcePoint" />
            <mxPoint x="900" y="510" as="targetPoint" />
          </mxGeometry>
        </mxCell>
        <mxCell id="yJI003IEUT3BsTEjJ197-93" value="5" style="text;html=1;align=center;verticalAlign=middle;resizable=0;points=[];autosize=1;strokeColor=none;fillColor=none;" parent="1" vertex="1">
          <mxGeometry x="885" y="508" width="30" height="30" as="geometry" />
        </mxCell>
        <mxCell id="WrRXt4d3My6ZRE51HuEJ-3" value="" style="endArrow=none;html=1;rounded=0;jumpStyle=arc;" parent="1" edge="1">
          <mxGeometry width="50" height="50" relative="1" as="geometry">
            <mxPoint x="280" y="840" as="sourcePoint" />
            <mxPoint x="413" y="801" as="targetPoint" />
            <Array as="points">
              <mxPoint x="281" y="801" />
            </Array>
          </mxGeometry>
        </mxCell>
        <mxCell id="yJI003IEUT3BsTEjJ197-24" value="" style="endArrow=classic;html=1;rounded=0;entryX=0;entryY=0.5;entryDx=0;entryDy=0;jumpStyle=arc;fillColor=#6a00ff;strokeColor=#3700CC;strokeWidth=3;" parent="1" target="_lhoNvbre-MPtyhj8p-p-9" edge="1">
          <mxGeometry width="50" height="50" relative="1" as="geometry">
            <mxPoint x="-180" y="290" as="sourcePoint" />
            <mxPoint x="310" y="560" as="targetPoint" />
            <Array as="points">
              <mxPoint x="-180" y="856" />
            </Array>
          </mxGeometry>
        </mxCell>
        <mxCell id="Bt-MRxAjFV4AakwYzhv4-4" value="" style="endArrow=classic;html=1;rounded=0;strokeWidth=4;fillColor=#e3c800;strokeColor=#B09500;jumpStyle=arc;" parent="1" edge="1">
          <mxGeometry width="50" height="50" relative="1" as="geometry">
            <mxPoint x="413" y="801" as="sourcePoint" />
            <mxPoint x="280" y="1280" as="targetPoint" />
            <Array as="points">
              <mxPoint x="281" y="801" />
            </Array>
          </mxGeometry>
        </mxCell>
        <mxCell id="yJI003IEUT3BsTEjJ197-65" value="" style="endArrow=none;html=1;rounded=0;" parent="1" edge="1">
          <mxGeometry width="50" height="50" relative="1" as="geometry">
            <mxPoint x="265" y="913" as="sourcePoint" />
            <mxPoint x="295" y="883" as="targetPoint" />
          </mxGeometry>
        </mxCell>
      </root>
    </mxGraphModel>
  </diagram>
  <diagram id="GvhFkx7s50ymxi1ySRUM" name="FSM">
    <mxGraphModel dx="1932" dy="654" grid="1" gridSize="10" guides="1" tooltips="1" connect="1" arrows="1" fold="1" page="1" pageScale="1" pageWidth="827" pageHeight="1169" math="0" shadow="0">
      <root>
        <mxCell id="0" />
        <mxCell id="1" parent="0" />
        <mxCell id="cWl-nC8zHT5fVAHz_leU-2" value="&lt;font color=&quot;#ff3333&quot;&gt;pareggio&lt;br&gt;/inizia&amp;nbsp;&lt;/font&gt;" style="ellipse;whiteSpace=wrap;html=1;aspect=fixed;" parent="1" vertex="1">
          <mxGeometry x="360" y="240" width="80" height="80" as="geometry" />
        </mxCell>
        <mxCell id="cWl-nC8zHT5fVAHz_leU-5" value="" style="endArrow=classic;html=1;rounded=0;exitX=-0.012;exitY=0.3;exitDx=0;exitDy=0;exitPerimeter=0;entryX=0.692;entryY=0.017;entryDx=0;entryDy=0;entryPerimeter=0;" parent="1" source="cWl-nC8zHT5fVAHz_leU-2" target="cWl-nC8zHT5fVAHz_leU-6" edge="1">
          <mxGeometry width="50" height="50" relative="1" as="geometry">
            <mxPoint x="390" y="360" as="sourcePoint" />
            <mxPoint x="230" y="320" as="targetPoint" />
            <Array as="points">
              <mxPoint x="270" y="250" />
            </Array>
          </mxGeometry>
        </mxCell>
        <mxCell id="cWl-nC8zHT5fVAHz_leU-6" value="&lt;font color=&quot;#ffd505&quot;&gt;Vantaggio&amp;nbsp;&lt;br&gt;giocatore 1&amp;nbsp;&lt;br&gt;punto 1&lt;/font&gt;" style="ellipse;whiteSpace=wrap;html=1;aspect=fixed;" parent="1" vertex="1">
          <mxGeometry x="130" y="290" width="80" height="80" as="geometry" />
        </mxCell>
        <mxCell id="cWl-nC8zHT5fVAHz_leU-7" value="&lt;font color=&quot;#ffd505&quot;&gt;Vantaggio&amp;nbsp;&lt;br&gt;giocatore 1&amp;nbsp;&lt;br&gt;punto 2&lt;/font&gt;" style="ellipse;whiteSpace=wrap;html=1;aspect=fixed;" parent="1" vertex="1">
          <mxGeometry x="60" y="490" width="80" height="80" as="geometry" />
        </mxCell>
        <mxCell id="cWl-nC8zHT5fVAHz_leU-8" value="&lt;font color=&quot;#00cc00&quot;&gt;Vantaggio&amp;nbsp;&lt;br&gt;giocatore 2&amp;nbsp;&lt;br&gt;punto 1&lt;/font&gt;" style="ellipse;whiteSpace=wrap;html=1;aspect=fixed;" parent="1" vertex="1">
          <mxGeometry x="600" y="270" width="80" height="80" as="geometry" />
        </mxCell>
        <mxCell id="cWl-nC8zHT5fVAHz_leU-9" value="&lt;font color=&quot;#00cc00&quot;&gt;Vantaggio&amp;nbsp;&lt;br&gt;giocatore 2&amp;nbsp;&lt;br&gt;punto 2&lt;/font&gt;" style="ellipse;whiteSpace=wrap;html=1;aspect=fixed;" parent="1" vertex="1">
          <mxGeometry x="710" y="490" width="80" height="80" as="geometry" />
        </mxCell>
        <mxCell id="cWl-nC8zHT5fVAHz_leU-10" value="reset" style="ellipse;whiteSpace=wrap;html=1;aspect=fixed;" parent="1" vertex="1">
          <mxGeometry x="374" y="700" width="80" height="80" as="geometry" />
        </mxCell>
        <mxCell id="cWl-nC8zHT5fVAHz_leU-11" value="" style="endArrow=classic;html=1;rounded=0;exitX=0.938;exitY=0.275;exitDx=0;exitDy=0;exitPerimeter=0;entryX=0;entryY=0.5;entryDx=0;entryDy=0;" parent="1" source="cWl-nC8zHT5fVAHz_leU-6" target="cWl-nC8zHT5fVAHz_leU-2" edge="1">
          <mxGeometry width="50" height="50" relative="1" as="geometry">
            <mxPoint x="383" y="314" as="sourcePoint" />
            <mxPoint x="370" y="330" as="targetPoint" />
            <Array as="points">
              <mxPoint x="280" y="320" />
            </Array>
          </mxGeometry>
        </mxCell>
        <mxCell id="cWl-nC8zHT5fVAHz_leU-12" value="" style="endArrow=classic;html=1;rounded=0;exitX=0;exitY=0.5;exitDx=0;exitDy=0;entryX=0.5;entryY=0;entryDx=0;entryDy=0;" parent="1" source="cWl-nC8zHT5fVAHz_leU-6" target="cWl-nC8zHT5fVAHz_leU-7" edge="1">
          <mxGeometry width="50" height="50" relative="1" as="geometry">
            <mxPoint x="213" y="394" as="sourcePoint" />
            <mxPoint x="70" y="410" as="targetPoint" />
            <Array as="points">
              <mxPoint x="80" y="410" />
            </Array>
          </mxGeometry>
        </mxCell>
        <mxCell id="cWl-nC8zHT5fVAHz_leU-13" value="" style="endArrow=classic;html=1;rounded=0;exitX=0.568;exitY=-0.058;exitDx=0;exitDy=0;exitPerimeter=0;entryX=0.013;entryY=0.588;entryDx=0;entryDy=0;entryPerimeter=0;" parent="1" source="cWl-nC8zHT5fVAHz_leU-7" target="cWl-nC8zHT5fVAHz_leU-6" edge="1">
          <mxGeometry width="50" height="50" relative="1" as="geometry">
            <mxPoint x="89" y="414" as="sourcePoint" />
            <mxPoint x="228" y="402" as="targetPoint" />
            <Array as="points">
              <mxPoint x="140" y="430" />
            </Array>
          </mxGeometry>
        </mxCell>
        <mxCell id="cWl-nC8zHT5fVAHz_leU-14" value="" style="endArrow=classic;html=1;rounded=0;entryX=1;entryY=0.363;entryDx=0;entryDy=0;entryPerimeter=0;exitX=0.063;exitY=0.225;exitDx=0;exitDy=0;exitPerimeter=0;" parent="1" source="cWl-nC8zHT5fVAHz_leU-8" target="cWl-nC8zHT5fVAHz_leU-2" edge="1">
          <mxGeometry width="50" height="50" relative="1" as="geometry">
            <mxPoint x="540" y="400" as="sourcePoint" />
            <mxPoint x="384" y="330" as="targetPoint" />
            <Array as="points">
              <mxPoint x="520" y="310" />
            </Array>
          </mxGeometry>
        </mxCell>
        <mxCell id="cWl-nC8zHT5fVAHz_leU-15" value="" style="endArrow=classic;html=1;rounded=0;exitX=1;exitY=0.313;exitDx=0;exitDy=0;exitPerimeter=0;entryX=0;entryY=0;entryDx=0;entryDy=0;" parent="1" source="cWl-nC8zHT5fVAHz_leU-2" target="cWl-nC8zHT5fVAHz_leU-8" edge="1">
          <mxGeometry width="50" height="50" relative="1" as="geometry">
            <mxPoint x="454" y="282" as="sourcePoint" />
            <mxPoint x="593" y="270" as="targetPoint" />
            <Array as="points">
              <mxPoint x="520" y="250" />
            </Array>
          </mxGeometry>
        </mxCell>
        <mxCell id="cWl-nC8zHT5fVAHz_leU-16" value="" style="endArrow=classic;html=1;rounded=0;entryX=0.67;entryY=0.993;entryDx=0;entryDy=0;exitX=0.25;exitY=0.013;exitDx=0;exitDy=0;exitPerimeter=0;entryPerimeter=0;" parent="1" source="cWl-nC8zHT5fVAHz_leU-9" target="cWl-nC8zHT5fVAHz_leU-8" edge="1">
          <mxGeometry width="50" height="50" relative="1" as="geometry">
            <mxPoint x="710" y="440" as="sourcePoint" />
            <mxPoint x="610" y="410" as="targetPoint" />
            <Array as="points">
              <mxPoint x="680" y="460" />
            </Array>
          </mxGeometry>
        </mxCell>
        <mxCell id="cWl-nC8zHT5fVAHz_leU-17" value="" style="endArrow=classic;html=1;rounded=0;exitX=0.692;exitY=0.982;exitDx=0;exitDy=0;exitPerimeter=0;entryX=0.288;entryY=0;entryDx=0;entryDy=0;entryPerimeter=0;" parent="1" source="cWl-nC8zHT5fVAHz_leU-8" target="cWl-nC8zHT5fVAHz_leU-9" edge="1">
          <mxGeometry width="50" height="50" relative="1" as="geometry">
            <mxPoint x="640" y="375" as="sourcePoint" />
            <mxPoint x="767" y="392" as="targetPoint" />
            <Array as="points">
              <mxPoint x="730" y="410" />
            </Array>
          </mxGeometry>
        </mxCell>
        <mxCell id="cWl-nC8zHT5fVAHz_leU-18" value="" style="endArrow=classic;html=1;rounded=0;exitX=0.7;exitY=0.975;exitDx=0;exitDy=0;exitPerimeter=0;entryX=0.011;entryY=0.329;entryDx=0;entryDy=0;entryPerimeter=0;" parent="1" source="cWl-nC8zHT5fVAHz_leU-7" target="Ycwf4pkEJahlJUnOgDGn-1" edge="1">
          <mxGeometry width="50" height="50" relative="1" as="geometry">
            <mxPoint x="390" y="500" as="sourcePoint" />
            <mxPoint x="140" y="670" as="targetPoint" />
            <Array as="points">
              <mxPoint x="130" y="610" />
            </Array>
          </mxGeometry>
        </mxCell>
        <mxCell id="cWl-nC8zHT5fVAHz_leU-19" value="" style="endArrow=classic;html=1;rounded=0;exitX=0;exitY=1;exitDx=0;exitDy=0;entryX=1.013;entryY=0.395;entryDx=0;entryDy=0;entryPerimeter=0;" parent="1" source="cWl-nC8zHT5fVAHz_leU-9" target="Ycwf4pkEJahlJUnOgDGn-2" edge="1">
          <mxGeometry width="50" height="50" relative="1" as="geometry">
            <mxPoint x="500" y="585" as="sourcePoint" />
            <mxPoint x="640" y="680" as="targetPoint" />
            <Array as="points">
              <mxPoint x="710" y="620" />
            </Array>
          </mxGeometry>
        </mxCell>
        <mxCell id="xZAM6CqpHtiS-E_cz9Gc-1" value="" style="curved=1;endArrow=classic;html=1;rounded=0;exitX=0.038;exitY=0.8;exitDx=0;exitDy=0;exitPerimeter=0;entryX=0.038;entryY=0.25;entryDx=0;entryDy=0;entryPerimeter=0;" parent="1" source="cWl-nC8zHT5fVAHz_leU-7" target="cWl-nC8zHT5fVAHz_leU-7" edge="1">
          <mxGeometry width="50" height="50" relative="1" as="geometry">
            <mxPoint x="350" y="490" as="sourcePoint" />
            <mxPoint x="400" y="440" as="targetPoint" />
            <Array as="points">
              <mxPoint x="-10" y="590" />
              <mxPoint x="-10" y="490" />
            </Array>
          </mxGeometry>
        </mxCell>
        <mxCell id="SqEuIW9EksBxM8CI3lI--2" value="" style="curved=1;endArrow=classic;html=1;rounded=0;exitX=0;exitY=1;exitDx=0;exitDy=0;entryX=1;entryY=1;entryDx=0;entryDy=0;" parent="1" source="cWl-nC8zHT5fVAHz_leU-10" target="cWl-nC8zHT5fVAHz_leU-10" edge="1">
          <mxGeometry width="50" height="50" relative="1" as="geometry">
            <mxPoint x="370" y="470" as="sourcePoint" />
            <mxPoint x="420" y="420" as="targetPoint" />
            <Array as="points">
              <mxPoint x="350" y="840" />
              <mxPoint x="470" y="830" />
            </Array>
          </mxGeometry>
        </mxCell>
        <mxCell id="SqEuIW9EksBxM8CI3lI--4" value="" style="curved=1;endArrow=classic;html=1;rounded=0;exitX=0.988;exitY=0.413;exitDx=0;exitDy=0;entryX=0.4;entryY=-0.05;entryDx=0;entryDy=0;exitPerimeter=0;entryPerimeter=0;" parent="1" source="cWl-nC8zHT5fVAHz_leU-8" target="cWl-nC8zHT5fVAHz_leU-8" edge="1">
          <mxGeometry width="50" height="50" relative="1" as="geometry">
            <mxPoint x="666" y="190" as="sourcePoint" />
            <mxPoint x="722" y="190" as="targetPoint" />
            <Array as="points">
              <mxPoint x="740" y="290" />
              <mxPoint x="670" y="200" />
            </Array>
          </mxGeometry>
        </mxCell>
        <mxCell id="SqEuIW9EksBxM8CI3lI--5" value="" style="curved=1;endArrow=classic;html=1;rounded=0;exitX=0.013;exitY=0.3;exitDx=0;exitDy=0;exitPerimeter=0;entryX=0.388;entryY=0.025;entryDx=0;entryDy=0;entryPerimeter=0;" parent="1" source="cWl-nC8zHT5fVAHz_leU-6" target="cWl-nC8zHT5fVAHz_leU-6" edge="1">
          <mxGeometry width="50" height="50" relative="1" as="geometry">
            <mxPoint x="163" y="344" as="sourcePoint" />
            <mxPoint x="181" y="288" as="targetPoint" />
            <Array as="points">
              <mxPoint x="50" y="280" />
              <mxPoint x="140" y="220" />
            </Array>
          </mxGeometry>
        </mxCell>
        <mxCell id="SqEuIW9EksBxM8CI3lI--6" value="" style="curved=1;endArrow=classic;html=1;rounded=0;exitX=0;exitY=0;exitDx=0;exitDy=0;entryX=0.775;entryY=0.063;entryDx=0;entryDy=0;entryPerimeter=0;" parent="1" source="cWl-nC8zHT5fVAHz_leU-2" target="cWl-nC8zHT5fVAHz_leU-2" edge="1">
          <mxGeometry width="50" height="50" relative="1" as="geometry">
            <mxPoint x="401" y="280" as="sourcePoint" />
            <mxPoint x="431" y="258" as="targetPoint" />
            <Array as="points">
              <mxPoint x="330" y="210" />
              <mxPoint x="450" y="180" />
            </Array>
          </mxGeometry>
        </mxCell>
        <mxCell id="SqEuIW9EksBxM8CI3lI--7" value="" style="curved=1;endArrow=classic;html=1;rounded=0;exitX=1;exitY=0.5;exitDx=0;exitDy=0;entryX=0.713;entryY=0.025;entryDx=0;entryDy=0;exitPerimeter=0;entryPerimeter=0;" parent="1" source="cWl-nC8zHT5fVAHz_leU-9" target="cWl-nC8zHT5fVAHz_leU-9" edge="1">
          <mxGeometry width="50" height="50" relative="1" as="geometry">
            <mxPoint x="807" y="483" as="sourcePoint" />
            <mxPoint x="760" y="446" as="targetPoint" />
            <Array as="points">
              <mxPoint x="880" y="530" />
              <mxPoint x="840" y="440" />
            </Array>
          </mxGeometry>
        </mxCell>
        <mxCell id="Ycwf4pkEJahlJUnOgDGn-1" value="&lt;font color=&quot;#ffd505&quot;&gt;Vantaggio&amp;nbsp;&lt;br&gt;giocatore 1&lt;br&gt;punto 3&lt;/font&gt;" style="ellipse;whiteSpace=wrap;html=1;aspect=fixed;" parent="1" vertex="1">
          <mxGeometry x="180" y="640" width="80" height="80" as="geometry" />
        </mxCell>
        <mxCell id="Ycwf4pkEJahlJUnOgDGn-2" value="&lt;font color=&quot;#00cc00&quot;&gt;Vantaggio&lt;br&gt;giocatore 2&lt;br&gt;punto 3&lt;/font&gt;" style="ellipse;whiteSpace=wrap;html=1;aspect=fixed;" parent="1" vertex="1">
          <mxGeometry x="580" y="640" width="80" height="80" as="geometry" />
        </mxCell>
        <mxCell id="Ycwf4pkEJahlJUnOgDGn-4" value="" style="curved=1;endArrow=classic;html=1;rounded=0;exitX=0.5;exitY=1;exitDx=0;exitDy=0;entryX=1.032;entryY=0.658;entryDx=0;entryDy=0;entryPerimeter=0;" parent="1" source="Ycwf4pkEJahlJUnOgDGn-2" target="Ycwf4pkEJahlJUnOgDGn-2" edge="1">
          <mxGeometry width="50" height="50" relative="1" as="geometry">
            <mxPoint x="530" y="610" as="sourcePoint" />
            <mxPoint x="580" y="560" as="targetPoint" />
            <Array as="points">
              <mxPoint x="650" y="790" />
              <mxPoint x="720" y="720" />
            </Array>
          </mxGeometry>
        </mxCell>
        <mxCell id="Ycwf4pkEJahlJUnOgDGn-5" value="" style="curved=1;endArrow=classic;html=1;rounded=0;exitX=0.009;exitY=0.647;exitDx=0;exitDy=0;entryX=0.691;entryY=0.965;entryDx=0;entryDy=0;entryPerimeter=0;exitPerimeter=0;" parent="1" source="Ycwf4pkEJahlJUnOgDGn-1" target="Ycwf4pkEJahlJUnOgDGn-1" edge="1">
          <mxGeometry width="50" height="50" relative="1" as="geometry">
            <mxPoint x="160" y="727" as="sourcePoint" />
            <mxPoint x="203" y="700" as="targetPoint" />
            <Array as="points">
              <mxPoint x="130" y="740" />
              <mxPoint x="220" y="770" />
            </Array>
          </mxGeometry>
        </mxCell>
        <mxCell id="Ycwf4pkEJahlJUnOgDGn-6" value="" style="endArrow=classic;html=1;rounded=0;exitX=0.964;exitY=0.726;exitDx=0;exitDy=0;exitPerimeter=0;entryX=0.027;entryY=0.408;entryDx=0;entryDy=0;entryPerimeter=0;" parent="1" source="Ycwf4pkEJahlJUnOgDGn-1" target="cWl-nC8zHT5fVAHz_leU-10" edge="1">
          <mxGeometry width="50" height="50" relative="1" as="geometry">
            <mxPoint x="380" y="560" as="sourcePoint" />
            <mxPoint x="430" y="510" as="targetPoint" />
            <Array as="points">
              <mxPoint x="320" y="730" />
            </Array>
          </mxGeometry>
        </mxCell>
        <mxCell id="Ycwf4pkEJahlJUnOgDGn-7" value="" style="endArrow=classic;html=1;rounded=0;exitX=0.077;exitY=0.817;exitDx=0;exitDy=0;exitPerimeter=0;entryX=1.016;entryY=0.397;entryDx=0;entryDy=0;entryPerimeter=0;" parent="1" source="Ycwf4pkEJahlJUnOgDGn-2" target="cWl-nC8zHT5fVAHz_leU-10" edge="1">
          <mxGeometry width="50" height="50" relative="1" as="geometry">
            <mxPoint x="414" y="635" as="sourcePoint" />
            <mxPoint x="513" y="700" as="targetPoint" />
            <Array as="points">
              <mxPoint x="520" y="730" />
            </Array>
          </mxGeometry>
        </mxCell>
        <mxCell id="Ycwf4pkEJahlJUnOgDGn-8" value="" style="endArrow=classic;html=1;rounded=0;exitX=0.622;exitY=-0.037;exitDx=0;exitDy=0;exitPerimeter=0;entryX=0.682;entryY=1.004;entryDx=0;entryDy=0;entryPerimeter=0;" parent="1" source="cWl-nC8zHT5fVAHz_leU-10" target="cWl-nC8zHT5fVAHz_leU-2" edge="1">
          <mxGeometry width="50" height="50" relative="1" as="geometry">
            <mxPoint x="420" y="640" as="sourcePoint" />
            <mxPoint x="460" y="470" as="targetPoint" />
          </mxGeometry>
        </mxCell>
        <mxCell id="Ycwf4pkEJahlJUnOgDGn-9" value="" style="endArrow=classic;html=1;rounded=0;exitX=0.5;exitY=1;exitDx=0;exitDy=0;entryX=0.382;entryY=-0.017;entryDx=0;entryDy=0;entryPerimeter=0;" parent="1" source="cWl-nC8zHT5fVAHz_leU-2" target="cWl-nC8zHT5fVAHz_leU-10" edge="1">
          <mxGeometry width="50" height="50" relative="1" as="geometry">
            <mxPoint x="410" y="520" as="sourcePoint" />
            <mxPoint x="460" y="470" as="targetPoint" />
          </mxGeometry>
        </mxCell>
        <mxCell id="Ycwf4pkEJahlJUnOgDGn-10" value="" style="endArrow=classic;html=1;rounded=0;exitX=1.036;exitY=0.588;exitDx=0;exitDy=0;exitPerimeter=0;entryX=0.049;entryY=0.202;entryDx=0;entryDy=0;entryPerimeter=0;" parent="1" source="cWl-nC8zHT5fVAHz_leU-7" target="cWl-nC8zHT5fVAHz_leU-10" edge="1">
          <mxGeometry width="50" height="50" relative="1" as="geometry">
            <mxPoint x="410" y="520" as="sourcePoint" />
            <mxPoint x="460" y="470" as="targetPoint" />
            <Array as="points" />
          </mxGeometry>
        </mxCell>
        <mxCell id="Ycwf4pkEJahlJUnOgDGn-11" value="" style="endArrow=classic;html=1;rounded=0;exitX=0.005;exitY=0.744;exitDx=0;exitDy=0;exitPerimeter=0;entryX=1;entryY=0;entryDx=0;entryDy=0;" parent="1" source="cWl-nC8zHT5fVAHz_leU-9" target="cWl-nC8zHT5fVAHz_leU-10" edge="1">
          <mxGeometry width="50" height="50" relative="1" as="geometry">
            <mxPoint x="410" y="520" as="sourcePoint" />
            <mxPoint x="460" y="470" as="targetPoint" />
          </mxGeometry>
        </mxCell>
        <mxCell id="Ycwf4pkEJahlJUnOgDGn-12" value="" style="endArrow=classic;html=1;rounded=0;exitX=0;exitY=0;exitDx=0;exitDy=0;entryX=0.651;entryY=1.025;entryDx=0;entryDy=0;entryPerimeter=0;" parent="1" source="cWl-nC8zHT5fVAHz_leU-10" target="cWl-nC8zHT5fVAHz_leU-6" edge="1">
          <mxGeometry width="50" height="50" relative="1" as="geometry">
            <mxPoint x="410" y="560" as="sourcePoint" />
            <mxPoint x="460" y="510" as="targetPoint" />
          </mxGeometry>
        </mxCell>
        <mxCell id="Ycwf4pkEJahlJUnOgDGn-13" value="" style="endArrow=classic;html=1;rounded=0;exitX=1;exitY=1;exitDx=0;exitDy=0;entryX=0.257;entryY=0.015;entryDx=0;entryDy=0;entryPerimeter=0;" parent="1" source="cWl-nC8zHT5fVAHz_leU-6" target="cWl-nC8zHT5fVAHz_leU-10" edge="1">
          <mxGeometry width="50" height="50" relative="1" as="geometry">
            <mxPoint x="396" y="722" as="sourcePoint" />
            <mxPoint x="350" y="500" as="targetPoint" />
          </mxGeometry>
        </mxCell>
        <mxCell id="Ycwf4pkEJahlJUnOgDGn-14" value="" style="endArrow=classic;html=1;rounded=0;exitX=0.695;exitY=-0.006;exitDx=0;exitDy=0;exitPerimeter=0;entryX=0.078;entryY=0.838;entryDx=0;entryDy=0;entryPerimeter=0;" parent="1" source="cWl-nC8zHT5fVAHz_leU-10" target="cWl-nC8zHT5fVAHz_leU-8" edge="1">
          <mxGeometry width="50" height="50" relative="1" as="geometry">
            <mxPoint x="410" y="560" as="sourcePoint" />
            <mxPoint x="460" y="510" as="targetPoint" />
          </mxGeometry>
        </mxCell>
        <mxCell id="Ycwf4pkEJahlJUnOgDGn-15" value="" style="endArrow=classic;html=1;rounded=0;entryX=0.789;entryY=0.056;entryDx=0;entryDy=0;entryPerimeter=0;" parent="1" edge="1">
          <mxGeometry width="50" height="50" relative="1" as="geometry">
            <mxPoint x="619" y="348" as="sourcePoint" />
            <mxPoint x="439.1199999999999" y="705.48" as="targetPoint" />
          </mxGeometry>
        </mxCell>
        <mxCell id="Ycwf4pkEJahlJUnOgDGn-17" value="&lt;font color=&quot;#ff3333&quot;&gt;11110/11&lt;br&gt;10110/10&lt;br&gt;01110/01&lt;br&gt;11-00/00&lt;br&gt;00-00/00&lt;/font&gt;" style="text;html=1;align=center;verticalAlign=middle;resizable=0;points=[];autosize=1;strokeColor=none;fillColor=none;" parent="1" vertex="1">
          <mxGeometry x="365" y="100" width="70" height="90" as="geometry" />
        </mxCell>
        <mxCell id="Ycwf4pkEJahlJUnOgDGn-18" value="&lt;font color=&quot;#ffd505&quot;&gt;01-00/00&lt;/font&gt;" style="text;html=1;align=center;verticalAlign=middle;resizable=0;points=[];autosize=1;strokeColor=none;fillColor=none;rotation=-15;" parent="1" vertex="1">
          <mxGeometry x="229" y="222" width="70" height="30" as="geometry" />
        </mxCell>
        <mxCell id="Ycwf4pkEJahlJUnOgDGn-19" value="&lt;font color=&quot;#00cc00&quot;&gt;10-00/00&lt;/font&gt;" style="text;html=1;align=center;verticalAlign=middle;resizable=0;points=[];autosize=1;strokeColor=none;fillColor=none;rotation=-15;" parent="1" vertex="1">
          <mxGeometry x="240" y="290" width="70" height="30" as="geometry" />
        </mxCell>
        <mxCell id="Ycwf4pkEJahlJUnOgDGn-21" value="&lt;font color=&quot;#ffd505&quot;&gt;11110/01&lt;/font&gt;&lt;br&gt;&lt;font color=&quot;#ffd505&quot;&gt;10110/11&lt;/font&gt;&lt;br&gt;&lt;font color=&quot;#ffd505&quot;&gt;011-0/01&lt;/font&gt;&lt;br&gt;&lt;font color=&quot;#ff3333&quot;&gt;11-00/00&lt;br&gt;00-00/00&lt;/font&gt;" style="text;html=1;align=center;verticalAlign=middle;resizable=0;points=[];autosize=1;strokeColor=none;fillColor=none;" parent="1" vertex="1">
          <mxGeometry x="60" y="150" width="70" height="90" as="geometry" />
        </mxCell>
        <mxCell id="Ycwf4pkEJahlJUnOgDGn-22" value="&lt;font color=&quot;#00cc00&quot;&gt;10-00/00&lt;/font&gt;" style="text;html=1;align=center;verticalAlign=middle;resizable=0;points=[];autosize=1;strokeColor=none;fillColor=none;rotation=0;" parent="1" vertex="1">
          <mxGeometry x="490" y="222" width="70" height="30" as="geometry" />
        </mxCell>
        <mxCell id="Ycwf4pkEJahlJUnOgDGn-23" value="&lt;font color=&quot;#ffd505&quot;&gt;01-00/00&lt;/font&gt;" style="text;html=1;align=center;verticalAlign=middle;resizable=0;points=[];autosize=1;strokeColor=none;fillColor=none;rotation=0;" parent="1" vertex="1">
          <mxGeometry x="489" y="277" width="70" height="30" as="geometry" />
        </mxCell>
        <mxCell id="Ycwf4pkEJahlJUnOgDGn-25" value="&lt;font color=&quot;#00cc00&quot;&gt;11110/10&lt;/font&gt;&lt;br&gt;&lt;font color=&quot;#00cc00&quot;&gt;101-0/10&lt;/font&gt;&lt;br&gt;&lt;font color=&quot;#00cc00&quot;&gt;01110/11&lt;/font&gt;&lt;br&gt;&lt;font color=&quot;#ff3333&quot;&gt;11-00/00&lt;br&gt;00-00/00&lt;/font&gt;" style="text;html=1;align=center;verticalAlign=middle;resizable=0;points=[];autosize=1;strokeColor=none;fillColor=none;" parent="1" vertex="1">
          <mxGeometry x="700" y="160" width="70" height="90" as="geometry" />
        </mxCell>
        <mxCell id="rfj3juZ0r2cgYFFwE2qO-1" value="&lt;font color=&quot;#ffd505&quot;&gt;01000/00&lt;/font&gt;" style="text;html=1;align=center;verticalAlign=middle;resizable=0;points=[];autosize=1;strokeColor=none;fillColor=none;rotation=-80;" parent="1" vertex="1">
          <mxGeometry x="30" y="390" width="70" height="30" as="geometry" />
        </mxCell>
        <mxCell id="rfj3juZ0r2cgYFFwE2qO-2" value="&lt;font color=&quot;#00cc00&quot;&gt;10-00/00&lt;/font&gt;" style="text;html=1;align=center;verticalAlign=middle;resizable=0;points=[];autosize=1;strokeColor=none;fillColor=none;rotation=-80;" parent="1" vertex="1">
          <mxGeometry x="90" y="407" width="70" height="30" as="geometry" />
        </mxCell>
        <mxCell id="rfj3juZ0r2cgYFFwE2qO-3" value="&lt;font color=&quot;#ffd505&quot;&gt;01000/00&lt;/font&gt;" style="text;html=1;align=center;verticalAlign=middle;resizable=0;points=[];autosize=1;strokeColor=none;fillColor=none;rotation=50;" parent="1" vertex="1">
          <mxGeometry x="90" y="620" width="70" height="30" as="geometry" />
        </mxCell>
        <mxCell id="rfj3juZ0r2cgYFFwE2qO-4" value="----1/00" style="text;html=1;align=center;verticalAlign=middle;resizable=0;points=[];autosize=1;strokeColor=none;fillColor=none;rotation=15;" parent="1" vertex="1">
          <mxGeometry x="280" y="724" width="60" height="30" as="geometry" />
        </mxCell>
        <mxCell id="rfj3juZ0r2cgYFFwE2qO-5" value="----1/00" style="text;html=1;align=center;verticalAlign=middle;resizable=0;points=[];autosize=1;strokeColor=none;fillColor=none;rotation=-15;" parent="1" vertex="1">
          <mxGeometry x="501" y="725" width="60" height="30" as="geometry" />
        </mxCell>
        <mxCell id="rfj3juZ0r2cgYFFwE2qO-6" value="&lt;font color=&quot;#00cc00&quot;&gt;10000/00&lt;/font&gt;" style="text;html=1;align=center;verticalAlign=middle;resizable=0;points=[];autosize=1;strokeColor=none;fillColor=none;rotation=-60;" parent="1" vertex="1">
          <mxGeometry x="687" y="612" width="70" height="30" as="geometry" />
        </mxCell>
        <mxCell id="rfj3juZ0r2cgYFFwE2qO-7" value="&lt;font color=&quot;#00cc00&quot;&gt;10000/00&lt;/font&gt;" style="text;html=1;align=center;verticalAlign=middle;resizable=0;points=[];autosize=1;strokeColor=none;fillColor=none;rotation=60;" parent="1" vertex="1">
          <mxGeometry x="710" y="391" width="70" height="30" as="geometry" />
        </mxCell>
        <mxCell id="rfj3juZ0r2cgYFFwE2qO-8" value="&lt;font color=&quot;#ffd505&quot;&gt;01-00/00&lt;/font&gt;" style="text;html=1;align=center;verticalAlign=middle;resizable=0;points=[];autosize=1;strokeColor=none;fillColor=none;rotation=60;" parent="1" vertex="1">
          <mxGeometry x="658" y="427" width="70" height="30" as="geometry" />
        </mxCell>
        <mxCell id="rfj3juZ0r2cgYFFwE2qO-9" value="----1/00" style="text;html=1;align=center;verticalAlign=middle;resizable=0;points=[];autosize=1;strokeColor=none;fillColor=none;rotation=-65;" parent="1" vertex="1">
          <mxGeometry x="510" y="515" width="60" height="30" as="geometry" />
        </mxCell>
        <mxCell id="rfj3juZ0r2cgYFFwE2qO-10" value="&lt;font color=&quot;#00cc00&quot;&gt;10000/00&lt;/font&gt;" style="text;html=1;align=center;verticalAlign=middle;resizable=0;points=[];autosize=1;strokeColor=none;fillColor=none;rotation=-65;" parent="1" vertex="1">
          <mxGeometry x="467" y="498" width="70" height="30" as="geometry" />
        </mxCell>
        <mxCell id="rfj3juZ0r2cgYFFwE2qO-11" value="----1/00" style="text;html=1;align=center;verticalAlign=middle;resizable=0;points=[];autosize=1;strokeColor=none;fillColor=none;rotation=40;" parent="1" vertex="1">
          <mxGeometry x="258" y="616" width="60" height="30" as="geometry" />
        </mxCell>
        <mxCell id="rfj3juZ0r2cgYFFwE2qO-12" value="----1/00" style="text;html=1;align=center;verticalAlign=middle;resizable=0;points=[];autosize=1;strokeColor=none;fillColor=none;rotation=-30;" parent="1" vertex="1">
          <mxGeometry x="529" y="612" width="60" height="30" as="geometry" />
        </mxCell>
        <mxCell id="rfj3juZ0r2cgYFFwE2qO-13" value="&lt;font color=&quot;#ffd505&quot;&gt;01000/00&lt;/font&gt;" style="text;html=1;align=center;verticalAlign=middle;resizable=0;points=[];autosize=1;strokeColor=none;fillColor=none;rotation=60;" parent="1" vertex="1">
          <mxGeometry x="223" y="510" width="70" height="30" as="geometry" />
        </mxCell>
        <mxCell id="rfj3juZ0r2cgYFFwE2qO-14" value="----1/00" style="text;html=1;align=center;verticalAlign=middle;resizable=0;points=[];autosize=1;strokeColor=none;fillColor=none;rotation=90;" parent="1" vertex="1">
          <mxGeometry x="363" y="468" width="60" height="30" as="geometry" />
        </mxCell>
        <mxCell id="rfj3juZ0r2cgYFFwE2qO-15" value="&lt;font color=&quot;#ff3333&quot;&gt;11000/00&lt;/font&gt;" style="text;html=1;align=center;verticalAlign=middle;resizable=0;points=[];autosize=1;strokeColor=none;fillColor=none;rotation=-90;" parent="1" vertex="1">
          <mxGeometry x="397" y="468" width="70" height="30" as="geometry" />
        </mxCell>
        <mxCell id="rfj3juZ0r2cgYFFwE2qO-16" value="----1/00" style="text;html=1;align=center;verticalAlign=middle;resizable=0;points=[];autosize=1;strokeColor=none;fillColor=none;rotation=60;" parent="1" vertex="1">
          <mxGeometry x="264" y="485" width="60" height="30" as="geometry" />
        </mxCell>
        <mxCell id="rfj3juZ0r2cgYFFwE2qO-17" value="&lt;font color=&quot;#ffd505&quot;&gt;11110/01&lt;br&gt;10110/01&lt;br&gt;011-0/01&lt;/font&gt;&lt;br&gt;&lt;font color=&quot;#ff3333&quot;&gt;11-00/00&lt;br&gt;00-00/00&lt;/font&gt;" style="text;html=1;align=center;verticalAlign=middle;resizable=0;points=[];autosize=1;strokeColor=none;fillColor=none;" parent="1" vertex="1">
          <mxGeometry x="-80" y="493" width="70" height="90" as="geometry" />
        </mxCell>
        <mxCell id="kzyOMuKogm2AnhKkEZf3-1" value="&lt;font color=&quot;#ffd505&quot;&gt;111-0/01&lt;br&gt;101-0/01&lt;br&gt;011-0/01&lt;/font&gt;&lt;br&gt;&lt;font color=&quot;#ff3333&quot;&gt;00000/00&lt;/font&gt;" style="text;html=1;align=center;verticalAlign=middle;resizable=0;points=[];autosize=1;strokeColor=none;fillColor=none;" parent="1" vertex="1">
          <mxGeometry x="120" y="760" width="70" height="70" as="geometry" />
        </mxCell>
        <mxCell id="kzyOMuKogm2AnhKkEZf3-2" value="&lt;font color=&quot;#00cc00&quot;&gt;11110/10&lt;/font&gt;&lt;br&gt;&lt;font color=&quot;#00cc00&quot;&gt;101-0/10&lt;/font&gt;&lt;br&gt;&lt;font color=&quot;#00cc00&quot;&gt;01110/10&lt;/font&gt;&lt;br&gt;&lt;font color=&quot;#ff3333&quot;&gt;11-00/00&lt;br&gt;00-00/00&lt;/font&gt;" style="text;html=1;align=center;verticalAlign=middle;resizable=0;points=[];autosize=1;strokeColor=none;fillColor=none;" parent="1" vertex="1">
          <mxGeometry x="870" y="438" width="70" height="90" as="geometry" />
        </mxCell>
        <mxCell id="kzyOMuKogm2AnhKkEZf3-3" value="----1/00" style="text;html=1;align=center;verticalAlign=middle;resizable=0;points=[];autosize=1;strokeColor=none;fillColor=none;" parent="1" vertex="1">
          <mxGeometry x="384" y="838" width="60" height="30" as="geometry" />
        </mxCell>
        <mxCell id="kzyOMuKogm2AnhKkEZf3-4" value="&lt;font color=&quot;#00cc00&quot;&gt;111-0/10&lt;br&gt;101-0/10&lt;br&gt;011-0/10&lt;/font&gt;&lt;br&gt;&lt;font color=&quot;#ff3333&quot;&gt;00000/00&lt;/font&gt;" style="text;html=1;align=center;verticalAlign=middle;resizable=0;points=[];autosize=1;strokeColor=none;fillColor=none;" parent="1" vertex="1">
          <mxGeometry x="687" y="750" width="70" height="70" as="geometry" />
        </mxCell>
      </root>
    </mxGraphModel>
  </diagram>
  <diagram id="Y05d-pjhT1N61YV9aDR8" name="FSMD">
    <mxGraphModel dx="1230" dy="934" grid="1" gridSize="10" guides="1" tooltips="1" connect="1" arrows="1" fold="1" page="1" pageScale="1" pageWidth="827" pageHeight="1169" math="0" shadow="0">
      <root>
        <mxCell id="0" />
        <mxCell id="1" parent="0" />
        <mxCell id="du-umwOFr2JHOSntCiib-3" value="" style="whiteSpace=wrap;html=1;aspect=fixed;fillColor=none;" vertex="1" parent="1">
          <mxGeometry x="200" y="80" width="520" height="520" as="geometry" />
        </mxCell>
        <mxCell id="du-umwOFr2JHOSntCiib-1" value="FSM" style="whiteSpace=wrap;html=1;aspect=fixed;" vertex="1" parent="1">
          <mxGeometry x="232" y="270" width="150" height="150" as="geometry" />
        </mxCell>
        <mxCell id="du-umwOFr2JHOSntCiib-2" value="DATAPATH" style="whiteSpace=wrap;html=1;aspect=fixed;" vertex="1" parent="1">
          <mxGeometry x="541" y="270" width="150" height="150" as="geometry" />
        </mxCell>
        <mxCell id="du-umwOFr2JHOSntCiib-6" value="" style="endArrow=classic;html=1;rounded=0;fontFamily=Helvetica;fontSize=12;fontColor=default;exitX=-0.007;exitY=0.853;exitDx=0;exitDy=0;exitPerimeter=0;entryX=0.998;entryY=0.856;entryDx=0;entryDy=0;entryPerimeter=0;fillColor=#76608a;strokeColor=#432D57;" edge="1" parent="1" source="du-umwOFr2JHOSntCiib-2" target="du-umwOFr2JHOSntCiib-1">
          <mxGeometry width="50" height="50" relative="1" as="geometry">
            <mxPoint x="390" y="410" as="sourcePoint" />
            <mxPoint x="400" y="398" as="targetPoint" />
          </mxGeometry>
        </mxCell>
        <mxCell id="du-umwOFr2JHOSntCiib-7" value="" style="endArrow=classic;html=1;rounded=0;fontFamily=Helvetica;fontSize=12;fontColor=default;exitX=-0.001;exitY=0.52;exitDx=0;exitDy=0;exitPerimeter=0;entryX=1.003;entryY=0.521;entryDx=0;entryDy=0;entryPerimeter=0;fillColor=#6a00ff;strokeColor=#3700CC;" edge="1" parent="1" source="du-umwOFr2JHOSntCiib-2" target="du-umwOFr2JHOSntCiib-1">
          <mxGeometry width="50" height="50" relative="1" as="geometry">
            <mxPoint x="524" y="348" as="sourcePoint" />
            <mxPoint x="402" y="348" as="targetPoint" />
          </mxGeometry>
        </mxCell>
        <mxCell id="du-umwOFr2JHOSntCiib-10" value="" style="endArrow=classic;html=1;rounded=0;fontFamily=Helvetica;fontSize=12;fontColor=default;exitX=0.001;exitY=0.213;exitDx=0;exitDy=0;exitPerimeter=0;entryX=1.001;entryY=0.214;entryDx=0;entryDy=0;entryPerimeter=0;fillColor=#1ba1e2;strokeColor=#006EAF;" edge="1" parent="1" source="du-umwOFr2JHOSntCiib-2" target="du-umwOFr2JHOSntCiib-1">
          <mxGeometry width="50" height="50" relative="1" as="geometry">
            <mxPoint x="523" y="302" as="sourcePoint" />
            <mxPoint x="401" y="302" as="targetPoint" />
          </mxGeometry>
        </mxCell>
        <mxCell id="du-umwOFr2JHOSntCiib-11" value="Manche" style="text;html=1;align=center;verticalAlign=middle;resizable=0;points=[];autosize=1;strokeColor=none;fillColor=none;fontSize=12;fontFamily=Helvetica;fontColor=default;" vertex="1" parent="1">
          <mxGeometry x="425" y="270" width="70" height="30" as="geometry" />
        </mxCell>
        <mxCell id="du-umwOFr2JHOSntCiib-12" value="Controllo manche minime" style="text;html=1;align=center;verticalAlign=middle;resizable=0;points=[];autosize=1;strokeColor=none;fillColor=none;fontSize=12;fontFamily=Helvetica;fontColor=default;" vertex="1" parent="1">
          <mxGeometry x="387" y="311" width="160" height="30" as="geometry" />
        </mxCell>
        <mxCell id="du-umwOFr2JHOSntCiib-13" value="Controllo manche massime" style="text;html=1;align=center;verticalAlign=middle;resizable=0;points=[];autosize=1;strokeColor=none;fillColor=none;fontSize=12;fontFamily=Helvetica;fontColor=default;" vertex="1" parent="1">
          <mxGeometry x="379" y="367" width="170" height="30" as="geometry" />
        </mxCell>
        <mxCell id="du-umwOFr2JHOSntCiib-15" value="" style="endArrow=classic;html=1;rounded=0;fontFamily=Helvetica;fontSize=12;fontColor=default;exitX=0.5;exitY=0;exitDx=0;exitDy=0;entryX=0.5;entryY=0;entryDx=0;entryDy=0;fillColor=#60a917;strokeColor=#2D7600;" edge="1" parent="1">
          <mxGeometry width="50" height="50" relative="1" as="geometry">
            <mxPoint x="463" y="80" as="sourcePoint" />
            <mxPoint x="310" y="270" as="targetPoint" />
            <Array as="points">
              <mxPoint x="463" y="160" />
              <mxPoint x="393" y="160" />
              <mxPoint x="310" y="160" />
            </Array>
          </mxGeometry>
        </mxCell>
        <mxCell id="du-umwOFr2JHOSntCiib-16" value="" style="endArrow=classic;html=1;rounded=0;fontFamily=Helvetica;fontSize=12;fontColor=default;entryX=0.521;entryY=-0.005;entryDx=0;entryDy=0;entryPerimeter=0;fillColor=#60a917;strokeColor=#2D7600;" edge="1" parent="1" target="du-umwOFr2JHOSntCiib-2">
          <mxGeometry width="50" height="50" relative="1" as="geometry">
            <mxPoint x="460" y="160" as="sourcePoint" />
            <mxPoint x="440" y="330" as="targetPoint" />
            <Array as="points">
              <mxPoint x="620" y="160" />
            </Array>
          </mxGeometry>
        </mxCell>
        <mxCell id="du-umwOFr2JHOSntCiib-17" value="RESET" style="text;html=1;align=center;verticalAlign=middle;resizable=0;points=[];autosize=1;strokeColor=none;fillColor=none;fontSize=12;fontFamily=Helvetica;fontColor=default;" vertex="1" parent="1">
          <mxGeometry x="470" y="130" width="60" height="30" as="geometry" />
        </mxCell>
        <mxCell id="du-umwOFr2JHOSntCiib-20" value="" style="endArrow=classic;html=1;rounded=0;fontFamily=Helvetica;fontSize=12;fontColor=default;" edge="1" parent="1">
          <mxGeometry width="50" height="50" relative="1" as="geometry">
            <mxPoint x="650" y="60" as="sourcePoint" />
            <mxPoint x="650" y="270" as="targetPoint" />
          </mxGeometry>
        </mxCell>
        <mxCell id="du-umwOFr2JHOSntCiib-21" value="" style="endArrow=classic;html=1;rounded=0;fontFamily=Helvetica;fontSize=12;fontColor=default;" edge="1" parent="1">
          <mxGeometry width="50" height="50" relative="1" as="geometry">
            <mxPoint x="670" y="60" as="sourcePoint" />
            <mxPoint x="670" y="270" as="targetPoint" />
          </mxGeometry>
        </mxCell>
        <mxCell id="du-umwOFr2JHOSntCiib-22" value="G1" style="text;html=1;align=center;verticalAlign=middle;resizable=0;points=[];autosize=1;strokeColor=none;fillColor=none;fontSize=12;fontFamily=Helvetica;fontColor=default;" vertex="1" parent="1">
          <mxGeometry x="618" y="48" width="40" height="30" as="geometry" />
        </mxCell>
        <mxCell id="du-umwOFr2JHOSntCiib-23" value="G2" style="text;html=1;align=center;verticalAlign=middle;resizable=0;points=[];autosize=1;strokeColor=none;fillColor=none;fontSize=12;fontFamily=Helvetica;fontColor=default;" vertex="1" parent="1">
          <mxGeometry x="662" y="48" width="40" height="30" as="geometry" />
        </mxCell>
      </root>
    </mxGraphModel>
  </diagram>
</mxfile>
